<?xml version="1.0" encoding="UTF-8"?>
<svg xmlns="http://www.w3.org/2000/svg" xmlns:xlink="http://www.w3.org/1999/xlink" width="150px" height="150px" viewBox="0 0 150 150" version="1.1">
<g id="surface1">
<path style=" stroke:none;fill-rule:nonzero;fill:#00B0FF;fill-opacity:1;" d="M 102.976562 12.121094 L 96.859375 12.171875 L 86.363281 12.171875 L 86.363281 139.613281 L 108.179688 139.613281 C 125.867188 139.613281 140.324219 124.796875 140.394531 107.121094 L 140.398438 107.121094 L 140.398438 107.019531 C 140.398438 107.011719 140.398438 107 140.398438 106.992188 L 140.398438 49.957031 L 140.40625 49.957031 L 140.40625 44.742188 C 140.40625 27.011719 125.921875 12.121094 108.1875 12.121094 Z M 42.707031 12.121094 C 25.019531 12.121094 10.5625 26.9375 10.492188 44.613281 L 10.488281 44.613281 L 10.488281 44.714844 C 10.488281 44.722656 10.488281 44.734375 10.488281 44.742188 L 10.488281 101.777344 L 10.480469 101.777344 L 10.480469 106.992188 C 10.480469 124.722656 24.964844 139.613281 42.699219 139.613281 L 72.847656 139.613281 L 72.847656 12.171875 L 47.917969 12.171875 L 47.917969 12.121094 Z M 43.109375 22.652344 L 43.109375 22.664062 L 47.917969 22.664062 L 47.917969 39.703125 L 47.917969 22.664062 L 62.351562 22.664062 L 62.351562 129.121094 L 47.910156 129.121094 L 47.910156 101.777344 L 47.910156 129.121094 L 43.472656 129.121094 C 26.765625 127.597656 21.660156 117.839844 20.980469 104.492188 L 20.980469 101.777344 L 47.910156 101.777344 L 20.980469 101.777344 L 20.980469 49.957031 L 30.730469 49.957031 C 30.71875 50.144531 30.707031 50.332031 30.703125 50.519531 C 30.703125 57.152344 36.082031 62.535156 42.71875 62.535156 C 49.355469 62.535156 54.734375 57.152344 54.734375 50.519531 C 54.726562 45.902344 52.078125 41.699219 47.917969 39.703125 C 46.296875 38.917969 44.519531 38.507812 42.71875 38.5 C 36.304688 38.507812 31.03125 43.550781 30.730469 49.957031 L 20.980469 49.957031 L 20.980469 47.4375 C 21.613281 34.089844 26.621094 24.296875 43.109375 22.652344 Z M 111.738281 69.402344 C 118.917969 69.402344 124.648438 75.128906 124.648438 82.3125 C 124.648438 89.492188 118.917969 95.222656 111.738281 95.222656 C 104.558594 95.222656 98.828125 89.492188 98.828125 82.3125 C 98.828125 75.128906 104.558594 69.402344 111.738281 69.402344 Z M 111.738281 69.402344 "/>
</g>
</svg>
